<?xml version="1.0" standalone="no"?>
<!DOCTYPE svg PUBLIC "-//W3C//DTD SVG 20010904//EN"
 "http://www.w3.org/TR/2001/REC-SVG-20010904/DTD/svg10.dtd">
<svg version="1.0" xmlns="http://www.w3.org/2000/svg"
 width="500.000000pt" height="500.000000pt" viewBox="0 0 500.000000 500.000000"
 preserveAspectRatio="xMidYMid meet">

<g transform="translate(0.000000,500.000000) scale(0.100000,-0.100000)"
fill="#000000" stroke="none">
<path d="M3403 3896 c-88 -65 -132 -107 -215 -209 l-23 -28 -70 46 c-116 78
-258 135 -390 155 -99 16 -294 14 -397 -5 -258 -45 -505 -198 -691 -427 -88
-108 -198 -366 -212 -495 -12 -114 -13 -117 -46 -132 -19 -8 -44 -34 -62 -63
-34 -55 -28 -53 -150 -32 -25 4 -48 2 -63 -7 -19 -10 -27 -10 -36 -1 -16 16
-51 15 -94 -3 -43 -18 -72 -75 -55 -112 11 -24 26 -30 36 -13 3 6 39 10 80 10
l73 0 -17 -45 c-14 -36 -26 -50 -58 -66 -44 -22 -68 -50 -79 -93 -5 -22 -10
-25 -33 -19 -96 27 -191 -37 -191 -129 0 -56 19 -68 106 -68 l74 0 0 -30 c0
-16 5 -30 10 -30 6 0 9 12 8 28 -3 25 0 27 35 30 l37 3 0 -66 c0 -62 23 -133
48 -149 5 -3 9 -24 9 -46 l0 -40 -46 0 c-29 0 -57 -7 -75 -20 -31 -20 -76 -85
-76 -109 0 -7 -11 -22 -25 -33 -14 -11 -25 -24 -25 -29 0 -12 37 -12 45 1 3 5
16 10 28 10 20 0 22 4 19 40 -4 35 0 44 31 75 30 30 42 35 82 35 41 0 51 -4
78 -35 17 -19 35 -35 41 -35 5 0 20 -9 32 -21 12 -11 39 -22 59 -24 25 -3 44
-13 61 -32 l24 -28 -132 -5 c-101 -4 -138 -2 -155 9 -53 31 -141 5 -163 -49
-18 -43 -3 -100 30 -117 16 -8 70 -13 151 -13 l126 0 7 -39 c7 -43 45 -96 76
-106 15 -5 20 -15 20 -41 0 -19 5 -34 10 -34 6 0 10 14 10 30 l0 30 90 0 90 0
0 -75 c0 -43 4 -75 10 -75 6 0 10 32 10 75 l0 76 78 -3 c71 -3 77 -5 77 -25 0
-11 3 -25 8 -29 4 -4 7 7 7 24 0 30 2 32 35 32 l35 0 0 -107 c0 -118 8 -145
37 -127 15 9 18 28 21 123 l3 111 53 0 c73 0 89 -20 96 -112 4 -54 9 -74 23
-82 24 -15 47 15 47 62 0 19 4 31 10 27 6 -4 10 -71 10 -168 0 -89 4 -168 9
-175 13 -21 21 49 21 196 0 132 12 174 24 86 3 -26 6 -147 6 -270 0 -204 2
-224 18 -233 30 -16 52 5 52 49 0 21 4 41 9 45 6 3 11 -56 13 -144 3 -159 11
-187 46 -165 15 10 17 43 20 363 l2 352 23 -3 c21 -3 22 -7 25 -132 1 -75 7
-135 14 -143 14 -17 33 -16 52 3 13 12 16 40 16 140 0 131 0 130 48 118 l22
-6 0 -418 c0 -391 1 -418 18 -433 23 -21 46 -22 66 -1 13 13 16 45 16 190 0
114 3 173 10 169 6 -3 10 -24 10 -45 0 -30 5 -42 21 -51 18 -9 25 -8 40 7 19
19 25 123 30 484 1 92 2 100 11 62 10 -45 34 -49 25 -4 -8 41 2 52 44 52 l39
0 0 -124 c0 -96 3 -126 15 -136 21 -18 48 -8 56 20 4 14 7 -86 8 -222 1 -210
3 -249 17 -262 20 -21 48 -20 65 1 11 13 14 73 15 287 2 475 3 496 18 496 9 0
15 -22 19 -80 7 -101 26 -130 61 -94 13 12 16 38 16 119 0 93 2 105 19 115 17
8 21 5 30 -23 14 -41 58 -85 97 -96 23 -6 30 -15 35 -42 8 -42 48 -122 49 -96
0 10 11 33 25 51 14 18 25 42 25 53 0 15 12 25 40 37 45 18 68 48 77 100 6 40
-8 66 -37 66 -24 0 -34 40 -12 46 92 29 145 81 157 155 7 40 7 40 48 37 39 -3
42 -5 48 -38 l6 -35 2 38 1 38 78 -3 c76 -3 77 -3 80 -31 4 -33 22 -26 22 9 0
23 2 24 70 24 l70 0 0 -60 c0 -52 -3 -61 -25 -76 -33 -21 -32 -37 7 -85 47
-58 74 -51 92 24 6 23 1 33 -24 57 -26 25 -30 35 -30 83 l0 55 138 4 137 3 53
53 c45 45 51 56 46 80 -17 72 -73 107 -158 99 -45 -4 -53 -1 -78 24 -16 15
-44 31 -63 35 -33 6 -33 6 -32 57 l2 52 120 2 c66 2 130 5 142 8 56 13 82 93
47 143 -20 29 -65 52 -102 52 -30 0 -72 32 -72 54 0 7 -10 25 -21 40 l-21 27
26 28 c39 40 44 89 15 141 -29 51 -78 78 -157 88 -41 5 -58 12 -60 24 -3 13
10 17 80 23 54 4 93 3 112 -5 36 -13 47 -4 48 40 1 37 -38 80 -71 80 -13 0
-21 10 -25 32 -17 87 -114 107 -154 31 -7 -12 -12 -31 -12 -42 0 -19 -6 -21
-69 -21 -69 0 -70 0 -91 35 -33 54 -90 78 -164 72 -34 -3 -290 -7 -569 -9
l-509 -3 -19 -24 c-17 -21 -19 -41 -19 -206 l0 -184 26 -20 c25 -20 39 -21
261 -21 l234 0 -12 -21 c-44 -82 -200 -196 -322 -234 -135 -43 -285 -28 -427
42 -98 48 -220 168 -267 263 -113 226 -92 503 51 676 99 120 189 177 341 216
229 59 485 -38 635 -240 25 -34 51 -63 58 -66 8 -3 34 6 60 22 26 15 55 32 64
37 56 31 200 123 241 152 35 26 47 41 47 60 0 32 -60 142 -112 204 -21 26 -38
51 -38 57 0 13 44 22 160 32 72 6 97 13 107 26 9 13 13 60 13 160 l0 142 -40
51 c-23 29 -49 51 -60 51 -10 0 -63 -33 -117 -74z m156 -8 c30 -41 31 -45 31
-154 0 -128 -4 -144 -34 -143 -11 0 -15 3 -8 6 9 3 12 40 12 132 0 119 -1 129
-23 149 l-22 21 -50 -34 c-28 -18 -83 -63 -123 -99 -101 -92 -115 -83 -17 12
76 73 178 152 195 152 5 0 22 -19 39 -42z m-912 -59 c146 -19 303 -78 433
-162 42 -27 51 -37 38 -42 -10 -4 -52 13 -110 43 -170 91 -323 132 -494 132
-93 0 -236 -24 -274 -46 l-25 -15 25 5 c82 19 99 15 30 -7 -89 -28 -162 -57
-232 -93 -49 -25 -61 -33 -95 -64 -9 -8 -21 -15 -27 -15 -6 -1 -10 -7 -8 -14
1 -7 -2 -10 -8 -6 -16 10 -167 -142 -218 -220 -76 -118 -109 -212 -114 -329
-1 -38 -1 -39 -5 -8 -8 61 17 173 56 256 61 131 155 241 286 336 78 56 222
132 278 145 15 4 27 11 27 17 0 14 -35 1 -157 -60 -133 -66 -221 -133 -321
-245 -108 -119 -169 -231 -218 -391 -57 -187 -7 -325 167 -466 51 -41 104 -91
118 -110 l26 -35 -50 41 c-27 22 -83 66 -122 97 -43 34 -88 81 -110 115 -102
156 -105 165 -77 300 44 212 131 371 293 532 123 122 258 206 419 260 159 53
317 70 469 49z m-168 -53 c-2 -2 -33 -6 -69 -9 -41 -3 -54 -2 -35 3 31 8 112
13 104 6z m124 -3 c-7 -2 -21 -2 -30 0 -10 3 -4 5 12 5 17 0 24 -2 18 -5z
m220 -44 c103 -34 289 -129 253 -129 -5 0 -32 13 -60 29 -70 40 -194 90 -296
118 -69 19 -75 22 -35 18 28 -4 89 -20 138 -36z m457 -99 c-11 -21 -20 -44
-20 -50 0 -15 -35 -45 -80 -69 -19 -11 -45 -29 -57 -41 -27 -24 -28 -18 -12
64 13 61 23 70 134 118 56 24 58 23 35 -22z m58 -192 c28 -33 66 -90 84 -126
l32 -65 -23 -18 c-13 -11 -28 -19 -35 -19 -6 0 -3 7 7 14 9 7 17 19 17 26 0
21 -56 111 -109 175 -44 53 -54 77 -33 74 4 0 31 -28 60 -61z m-1497 -286 c-5
-9 -19 -26 -31 -37 -11 -10 -30 -36 -42 -57 -12 -20 -28 -40 -36 -43 -19 -7
43 104 74 133 30 27 49 29 35 4z m-11 -168 c0 -8 -4 -12 -10 -9 -5 3 -10 2
-10 -2 0 -5 -7 -18 -15 -29 -14 -17 -14 -15 0 20 8 21 15 40 15 43 0 2 5 1 10
-2 6 -3 10 -13 10 -21z m-8 -368 c39 -50 103 -175 94 -183 -2 -3 -12 10 -22
28 -9 18 -61 99 -116 181 -85 125 -101 155 -105 195 -4 48 -4 48 54 -62 32
-61 75 -132 95 -159z m1894 129 c31 -20 57 -72 51 -102 -3 -18 -1 -23 10 -18
46 17 143 -45 143 -91 0 -22 4 -24 48 -24 110 -1 182 -44 185 -111 l2 -34 -87
-3 c-75 -2 -89 0 -105 16 -33 35 -123 75 -183 81 -54 6 -62 10 -119 64 l-61
58 0 84 c0 56 -4 86 -12 92 -19 11 41 21 76 11 16 -4 39 -14 52 -23z m-2329
-86 c-4 -60 -9 -115 -13 -120 -3 -5 -23 10 -44 33 l-38 43 -181 -3 c-156 -3
-181 -1 -181 12 0 19 24 43 51 51 14 5 31 0 50 -14 l30 -22 26 20 c32 26 53
26 86 1 18 -14 28 -17 33 -9 4 7 22 9 50 5 43 -5 44 -5 59 32 17 39 52 82 68
82 6 0 8 -41 4 -111z m2677 95 c16 -41 7 -54 -33 -54 -45 0 -56 10 -47 46 5
19 13 24 40 24 22 0 36 -6 40 -16z m-526 -10 c21 -15 22 -21 22 -178 0 -170
-4 -186 -45 -186 -18 1 -18 1 -2 11 15 9 17 28 17 169 l0 160 -480 0 -480 0 0
-92 c0 -51 -7 -115 -14 -143 -14 -49 -14 -47 -15 95 -1 147 2 162 29 173 8 3
224 6 480 6 406 1 468 -1 488 -15z m-1668 -19 c0 -8 -4 -15 -10 -15 -5 0 -10
7 -10 15 0 8 5 15 10 15 6 0 10 -7 10 -15z m-212 -20 c6 -14 8 -25 3 -25 -13
0 -42 36 -34 43 12 12 20 8 31 -18z m-189 -30 c0 -5 -4 -3 -9 5 -5 8 -9 22 -9
30 0 16 17 -16 18 -35z m2678 -20 c13 -9 23 -21 23 -28 0 -19 -246 -6 -283 15
-16 9 -23 17 -17 19 6 2 65 5 132 6 95 2 127 -1 145 -12z m-2665 -98 c8 -16 7
-17 -11 -8 -19 11 -41 41 -41 57 0 10 40 -28 52 -49z m78 27 c0 -8 -4 -12 -10
-9 -5 3 -10 10 -10 16 0 5 5 9 10 9 6 0 10 -7 10 -16z m-283 -19 c14 -9 32
-29 41 -45 10 -17 28 -31 44 -34 27 -5 28 -8 28 -61 l0 -55 -47 0 c-26 0 -65
-9 -87 -19 -23 -10 -62 -22 -87 -25 -57 -8 -115 -45 -153 -97 l-28 -40 -105 2
c-136 2 -143 4 -143 41 0 44 57 98 103 98 20 0 42 -6 49 -14 8 -7 26 -11 44
-9 27 4 29 8 26 37 -10 83 116 142 193 90 56 -39 131 5 86 49 l-21 21 -21 -21
c-20 -20 -23 -20 -60 -4 -21 9 -39 21 -39 27 0 17 40 65 64 75 28 12 82 4 113
-16z m2378 -81 c18 -28 15 -34 -27 -52 l-28 -12 0 56 c0 50 2 54 19 45 10 -6
26 -22 36 -37z m-2070 -38 c122 -30 185 -51 230 -78 39 -24 25 -23 -33 2 -26
11 -96 31 -157 45 -114 26 -185 52 -185 67 0 5 8 5 18 -1 9 -5 67 -21 127 -35z
m-20 -36 c27 -7 27 -8 5 -8 -14 0 -36 4 -50 8 -20 6 -21 8 -5 8 11 0 34 -4 50
-8z m2272 -6 c45 -15 113 -67 113 -86 0 -5 -15 2 -33 16 -63 49 -104 59 -197
51 -89 -7 -97 -2 -33 20 51 19 92 18 150 -1z m-247 -84 c13 -9 13 -10 0 -10
-8 0 -33 -3 -55 -7 -37 -6 -39 -5 -26 10 15 19 58 22 81 7z m223 -14 c39 -18
72 -44 65 -51 -3 -3 -26 4 -53 16 -34 15 -58 19 -89 15 -22 -3 -53 -7 -67 -9
-33 -5 -51 -16 -43 -28 3 -5 2 -9 -3 -8 -21 4 -36 -3 -60 -28 -17 -19 -22 -21
-15 -8 15 28 72 81 107 99 38 20 116 20 158 2z m-2547 -32 c35 -17 89 -72 80
-82 -3 -2 -21 9 -40 26 -39 34 -82 47 -127 37 -39 -9 -101 -50 -91 -60 4 -5 0
-6 -9 -2 -9 3 -22 0 -29 -6 -10 -10 -10 -8 -2 8 41 79 141 115 218 79z m191
-9 c22 -9 48 -30 61 -50 12 -19 29 -35 38 -35 18 0 78 -40 71 -47 -10 -9 -73
26 -112 61 -40 36 -87 56 -135 56 -24 1 -24 1 -6 15 25 19 36 19 83 0z m487
-20 c32 -15 55 -29 53 -32 -3 -2 -18 2 -34 10 -47 24 -132 40 -186 35 -51 -5
-51 -5 -22 9 42 19 122 10 189 -22z m2176 0 c19 -18 30 -39 30 -56 0 -18 6
-28 20 -32 13 -3 22 -17 26 -36 6 -29 8 -30 24 -16 24 21 66 19 91 -6 33 -33
8 -48 -94 -57 -48 -4 -88 -11 -90 -17 -3 -14 139 -18 177 -6 l31 11 -24 -20
c-20 -17 -38 -20 -136 -20 -74 0 -124 5 -146 14 -25 10 -71 14 -169 12 -74 -2
-142 1 -150 5 -8 4 -23 10 -32 13 -10 3 -18 9 -18 15 0 12 52 21 69 11 10 -5
26 5 51 31 39 42 62 47 116 27 39 -14 64 1 64 38 0 31 -17 40 -40 19 -10 -9
-24 -15 -29 -14 -19 7 22 72 59 97 50 34 128 27 170 -13z m-620 -25 c0 -5 -16
-10 -36 -10 -21 0 -33 4 -29 10 3 6 19 10 36 10 16 0 29 -4 29 -10z m-435 -24
c28 -13 59 -34 70 -47 l20 -23 -30 19 c-16 11 -55 32 -85 47 -67 34 -45 37 25
4z m739 8 c27 -10 18 -25 -11 -18 -46 11 -62 23 -31 24 14 0 33 -3 42 -6z
m-2114 -24 c36 -10 90 -53 128 -104 39 -52 23 -50 -30 3 -29 28 -74 62 -100
74 -67 31 -66 46 2 27z m315 -6 c33 -8 109 -38 169 -67 89 -42 105 -53 89 -60
-15 -7 -40 2 -104 36 -116 62 -174 79 -279 80 -84 2 -105 10 -50 20 54 9 118
6 175 -9z m1693 -16 c21 -21 13 -25 -22 -14 -19 6 -32 14 -30 18 8 12 38 10
52 -4z m-661 -33 c36 -24 20 -30 -27 -11 -22 9 -55 16 -73 17 -27 0 -29 2 -12
9 27 13 81 5 112 -15z m488 4 c69 -25 68 -34 0 -13 -61 19 -182 14 -239 -10
-22 -9 -60 -32 -85 -52 l-46 -36 50 46 c90 84 207 107 320 65z m-2088 -4 c54
-23 30 -38 -30 -20 -42 13 -54 13 -90 0 l-42 -14 28 25 c33 28 80 31 134 9z
m-219 -7 c20 -20 14 -28 -14 -18 -40 16 -51 12 -94 -26 -35 -32 -40 -34 -40
-16 0 32 55 72 99 72 20 0 42 -5 49 -12z m495 -65 c23 -15 50 -44 61 -63 l20
-35 -48 43 c-26 24 -62 49 -79 56 -26 11 -107 14 -163 7 -7 0 -35 -17 -63 -36
-57 -39 -71 -31 -17 10 81 62 215 70 289 18z m274 11 l28 -26 -25 7 c-14 3
-42 9 -62 12 -38 6 -49 17 -25 26 28 12 58 5 84 -19z m918 18 c-19 -17 -125
-41 -122 -29 1 7 13 17 27 24 28 14 109 18 95 5z m638 -13 c34 -9 113 -66 104
-75 -2 -2 -31 10 -64 27 -62 32 -173 49 -173 27 0 -6 -7 -8 -15 -5 -8 4 -17 2
-21 -4 -3 -6 -13 -8 -22 -4 -9 3 -13 3 -9 -1 4 -4 -12 -20 -35 -36 -24 -15
-44 -24 -46 -18 -2 5 -11 7 -20 4 -9 -3 -1 8 18 25 68 61 188 87 283 60z
m-1883 -29 c22 -11 40 -23 40 -25 0 -5 -79 32 -89 41 -11 10 14 2 49 -16z
m1475 1 c-14 -12 -65 -23 -65 -13 0 16 13 22 44 22 17 0 26 -4 21 -9z m-99
-37 c44 -46 44 -65 0 -26 -43 37 -69 46 -95 33 -11 -6 -32 -11 -48 -11 l-28 1
24 19 c15 14 38 20 68 20 39 0 50 -5 79 -36z m-1445 5 l24 -20 -25 12 c-14 7
-43 16 -65 20 l-40 6 41 2 c29 1 49 -5 65 -20z m922 2 c9 -9 4 -10 -19 -5 -17
3 -60 -1 -95 -10 -105 -27 -317 -107 -376 -143 -61 -36 -83 -42 -62 -16 19 23
158 87 267 122 50 17 108 39 129 51 42 22 134 23 156 1z m-1155 -15 c11 -11 5
-12 -37 -8 -50 4 -111 -11 -111 -29 0 -5 -5 -9 -11 -9 -23 0 -1 25 42 48 47
25 91 24 117 -2z m1315 -8 c34 -17 57 -33 50 -35 -15 -5 -109 35 -124 53 -19
23 5 17 74 -18z m-600 5 c-18 -2 -33 -8 -33 -14 0 -5 -11 -9 -25 -9 -13 0 -48
-9 -77 -21 -53 -20 -53 -20 -33 0 29 29 92 50 150 49 34 -1 40 -2 18 -5z m84
-9 c-3 -3 -12 -4 -19 -1 -8 3 -5 6 6 6 11 1 17 -2 13 -5z m1350 -27 c10 -9 -2
-12 -51 -12 -64 0 -74 8 -32 25 24 11 66 4 83 -13z m323 13 c12 -8 11 -10 -5
-9 -11 1 -33 5 -50 9 l-30 8 35 1 c19 0 42 -4 50 -9z m157 -22 c26 -21 12 -24
-36 -9 -29 10 -44 19 -37 24 13 8 55 0 73 -15z m-1090 -9 c17 -6 37 -17 45
-26 11 -14 10 -16 -13 -10 -14 4 -50 18 -80 31 -47 22 -50 24 -19 20 19 -3 49
-10 67 -15z m-1146 -32 c76 -38 74 -39 -21 -5 -104 37 -219 39 -350 3 -23 -6
-23 -5 -5 6 45 29 102 39 201 36 93 -3 107 -6 175 -40z m711 12 c122 -41 287
-138 355 -209 50 -51 101 -137 108 -180 6 -34 6 -34 -18 12 -78 153 -190 244
-427 345 -58 25 -107 47 -109 49 -11 10 35 2 91 -17z m1282 15 c24 -9 19 -24
-8 -24 -45 0 -88 12 -74 21 15 10 60 12 82 3z m-2644 -8 c0 -2 -7 -9 -15 -16
-13 -11 -14 -10 -9 4 5 14 24 23 24 12z m120 -15 c-8 -5 -33 -11 -55 -14 -39
-6 -39 -6 -15 8 14 8 39 14 55 14 21 0 26 -2 15 -8z m1182 -22 c71 -24 182
-78 175 -85 -3 -3 -27 6 -54 19 -26 14 -83 37 -125 52 -43 15 -78 29 -78 31 0
8 23 3 82 -17z m413 -13 c128 -61 220 -148 255 -240 16 -44 -5 -26 -52 44 -46
70 -106 117 -238 189 -91 49 -64 55 35 7z m1075 24 c11 -8 7 -9 -15 -4 -37 8
-45 14 -19 14 10 0 26 -5 34 -10z m-2575 -12 c-11 -6 -45 -27 -74 -46 -48 -30
-53 -31 -39 -11 16 25 91 69 117 69 12 -1 11 -3 -4 -12z m2195 -17 c33 -17 80
-72 80 -94 0 -6 -15 6 -34 26 -36 40 -106 76 -146 77 -20 0 -22 2 -10 10 19
13 64 5 110 -19z m-1925 9 c15 -7 10 -9 -23 -9 -53 -1 -96 -20 -151 -67 -47
-40 -54 -31 -14 17 47 55 133 82 188 59z m1754 -10 c52 -24 50 -37 -2 -15 -50
21 -133 19 -186 -5 -66 -31 -64 -22 4 11 71 34 122 37 184 9z m308 -1 c24 -12
50 -34 58 -50 22 -41 18 -45 -11 -10 -14 17 -47 38 -74 48 -27 9 -46 21 -44
25 8 13 24 10 71 -13z m196 -11 c9 -5 17 -13 17 -18 0 -10 -78 17 -95 33 -12
11 51 -1 78 -15z m-793 -13 c14 -8 19 -14 10 -14 -8 0 -26 6 -40 14 -14 8 -19
14 -10 14 8 0 26 -6 40 -14z m-1500 -2 c-8 -3 -27 -12 -42 -20 -16 -7 -28 -11
-28 -9 0 9 54 35 70 35 13 -1 13 -1 0 -6z m284 -18 c49 -21 41 -29 -15 -16
-116 27 -206 1 -283 -82 l-39 -42 22 40 c57 103 200 148 315 100z m2253 -22
c19 -9 40 -27 46 -40 8 -18 16 -23 31 -18 12 4 42 9 68 12 43 5 50 3 78 -25
16 -17 30 -40 30 -51 0 -21 -3 -21 -300 -20 -282 0 -300 2 -300 19 0 31 21 38
97 31 l72 -7 15 38 c11 29 25 43 58 58 53 24 61 24 105 3z m-1798 -12 c44 -23
56 -36 71 -76 11 -29 10 -29 -20 7 -31 38 -77 58 -135 58 -29 1 -29 1 -11 15
26 20 49 19 95 -4z m1101 -14 c25 -13 70 -71 70 -91 0 -6 -12 4 -26 22 -26 32
-66 58 -114 73 -23 7 -22 7 10 8 19 0 46 -5 60 -12z m-167 -8 c35 -9 113 -67
103 -76 -2 -2 -28 9 -58 26 -58 33 -130 41 -182 21 -42 -16 -30 -1 17 20 48
22 67 24 120 9z m-1226 -15 c98 -33 245 -160 292 -252 34 -66 24 -70 -17 -6
-95 146 -230 238 -347 238 -76 0 -123 -23 -205 -103 -41 -39 -63 -54 -67 -45
-7 19 28 60 88 105 48 36 110 62 169 72 14 2 28 5 32 6 4 0 29 -6 55 -15z
m558 -157 c37 -74 49 -117 43 -163 -3 -24 -6 -19 -16 28 -15 64 -77 198 -113
243 -50 61 -50 68 0 15 28 -30 67 -86 86 -123z m-424 152 c38 -13 119 -75 119
-90 0 -6 -14 0 -32 13 -18 13 -57 37 -88 55 -57 34 -57 41 1 22z m174 -49 c3
-5 1 -10 -4 -10 -6 0 -11 5 -11 10 0 6 2 10 4 10 3 0 8 -4 11 -10z m184 -49
c11 -21 22 -50 25 -64 4 -21 1 -25 -19 -23 -13 0 -22 3 -20 5 3 2 -2 13 -10
23 -19 28 -9 53 14 36 13 -10 13 -9 -1 8 -16 19 -25 54 -13 54 2 0 13 -17 24
-39z m912 10 c16 -16 29 -34 29 -41 0 -12 -89 50 -90 63 -1 17 34 5 61 -22z
m-160 4 c36 -19 69 -70 68 -105 0 -22 -2 -20 -12 10 -14 40 -67 80 -108 80
-30 0 -47 15 -27 23 24 10 49 7 79 -8z m-1306 -5 c3 -5 -1 -10 -9 -10 -8 0
-18 5 -21 10 -3 6 1 10 9 10 8 0 18 -4 21 -10z m-100 -10 c-27 -12 -43 -12
-25 0 8 5 22 9 30 9 10 0 8 -3 -5 -9z m777 -17 c31 -30 35 -43 14 -43 -15 0
-56 45 -56 61 0 15 13 10 42 -18z m-637 7 c3 -6 -1 -7 -9 -4 -18 7 -21 14 -7
14 6 0 13 -4 16 -10z m-978 -36 c20 -22 23 -23 50 -9 19 10 55 15 111 14 86
-1 111 -12 113 -47 1 -10 4 -6 8 8 6 24 11 25 83 28 51 2 87 -2 110 -12 l33
-14 -57 -1 c-31 -1 -60 -6 -63 -12 -9 -14 -5 -17 27 -21 15 -2 30 -7 34 -11 4
-4 -119 -7 -272 -7 -301 0 -304 0 -304 52 0 21 8 33 32 48 38 23 64 19 95 -16z
m1367 -16 c13 -13 27 -33 31 -45 6 -20 3 -19 -24 8 -17 17 -35 28 -41 24 -5
-3 -10 -1 -10 4 0 6 -6 11 -14 11 -8 0 -18 5 -21 10 -13 20 54 10 79 -12z
m1276 12 c0 -5 -8 -10 -17 -10 -15 0 -16 2 -3 10 19 12 20 12 20 0z m145 -1
c-66 -5 -114 -4 -119 2 -6 5 35 8 110 8 l119 -2 -110 -8z m-1869 -21 c11 -11
2 -13 -52 -13 -70 0 -77 -5 -126 -75 l-17 -25 9 33 c11 41 25 59 65 84 34 21
98 19 121 -4z m1911 6 c-3 -3 -12 -4 -19 -1 -8 3 -5 6 6 6 11 1 17 -2 13 -5z
m-797 -50 c0 -8 -4 -12 -10 -9 -5 3 -10 13 -10 21 0 8 5 12 10 9 6 -3 10 -13
10 -21z m-1456 -2 c3 -5 -19 -10 -49 -11 -32 -1 -55 3 -55 9 0 12 97 14 104 2z
m435 -41 l-2 -26 -4 25 c-3 14 -10 32 -16 40 -11 13 -10 13 6 1 9 -7 16 -25
16 -40z m1501 8 c-12 -42 -42 -72 -92 -94 -49 -20 -53 -19 -66 10 -16 35 -16
35 14 35 30 0 63 16 84 42 13 16 61 47 67 43 1 -1 -2 -17 -7 -36z m-794 3 c12
-9 27 -27 33 -39 11 -22 9 -21 -39 7 -27 16 -50 27 -50 24 0 -3 -5 -2 -10 1
-6 4 -8 11 -5 16 10 15 48 10 71 -9z m-1118 -34 c22 -22 13 -28 -43 -28 -30 0
-55 2 -55 4 0 2 -3 11 -6 20 -5 13 2 16 43 16 27 0 54 -5 61 -12z m-186 -9
c26 -1 40 -24 36 -61 l-3 -33 -85 -3 c-105 -4 -125 1 -147 34 -17 26 -16 27
12 51 27 22 36 24 100 19 39 -3 78 -6 87 -7z m174 -59 c57 0 95 -4 100 -11 12
-21 -20 -29 -118 -29 l-98 0 0 32 c0 25 3 29 12 20 8 -8 46 -12 104 -12z
m2442 -33 c4 -29 -7 -33 -41 -16 -47 25 -44 47 5 45 28 -1 33 -6 36 -29z
m-745 -53 c15 -14 29 -43 33 -63 3 -20 7 -40 8 -46 2 -5 21 10 43 34 25 27 43
39 47 32 10 -16 -15 -61 -47 -85 -35 -26 -126 -27 -174 -2 -88 45 -68 155 28
156 26 0 44 -7 62 -26z m-1533 -100 c0 -56 -4 -94 -10 -94 -6 0 -10 40 -10
101 0 64 4 98 10 94 6 -3 10 -48 10 -101z m740 -104 l4 155 6 -205 c4 -113 3
-225 -1 -250 -4 -25 -8 -149 -8 -275 -1 -125 -3 -230 -5 -233 -22 -21 -25 44
-25 476 -1 488 10 678 19 357 l6 -180 4 155z m-520 85 c0 -19 -4 -37 -10 -40
-6 -4 -10 12 -10 40 0 28 4 44 10 40 6 -3 10 -21 10 -40z m140 -266 c0 -137
-4 -249 -9 -249 -9 0 -19 350 -13 453 2 31 8 55 13 51 5 -3 9 -116 9 -255z
m907 164 c-2 -16 -4 -3 -4 27 0 30 2 43 4 28 2 -16 2 -40 0 -55z m-687 -79 c0
-69 -4 -114 -10 -114 -6 0 -10 47 -10 121 0 77 4 118 10 114 6 -4 10 -55 10
-121z m480 17 c0 -63 -4 -112 -10 -116 -6 -4 -10 35 -10 109 0 71 4 116 10
116 6 0 10 -43 10 -109z m-606 -53 c10 -188 7 -506 -4 -513 -11 -7 -12 25 -15
300 -4 319 -8 351 -22 150 l-8 -120 -5 120 c-3 66 -4 139 -2 162 4 39 6 41 27
31 20 -9 22 -19 29 -130z m698 102 c4 -94 4 -93 -24 -101 -26 -7 -28 -5 -28
20 0 16 -3 49 -6 75 l-7 46 32 0 c29 0 31 -2 33 -40z m368 7 c0 -5 -4 -5 -10
-2 -5 3 -10 14 -10 23 0 15 2 15 10 2 5 -8 10 -19 10 -23z m-365 -385 c0 -137
-3 -253 -7 -257 -23 -24 -28 20 -28 254 0 136 3 251 7 255 24 24 28 -13 28
-252z m-305 194 c0 -59 -14 -93 -41 -101 -27 -9 -39 8 -39 55 0 28 19 84 20
57 0 -4 10 1 22 13 32 29 38 25 38 -24z m-50 -211 c0 -8 -4 -15 -10 -15 -5 0
-7 7 -4 15 4 8 8 15 10 15 2 0 4 -7 4 -15z"/>
<path d="M3997 1712 c-25 -28 -21 -32 28 -32 48 0 55 9 29 34 -20 21 -37 20
-57 -2z"/>
<path d="M2953 3924 c-8 -20 13 -42 27 -28 12 12 3 44 -11 44 -5 0 -12 -7 -16
-16z"/>
<path d="M1841 3846 c-9 -10 -9 -16 -1 -21 17 -10 37 12 24 25 -8 8 -15 6 -23
-4z"/>
<path d="M1456 3735 c-6 -16 12 -65 24 -65 5 0 18 8 30 18 l23 19 -21 21 c-26
26 -47 28 -56 7z"/>
<path d="M3466 3503 c-9 -24 9 -39 29 -23 12 10 13 16 4 26 -15 19 -25 18 -33
-3z"/>
<path d="M1515 3490 c-8 -13 4 -32 16 -25 12 8 12 35 0 35 -6 0 -13 -4 -16
-10z"/>
<path d="M3750 3252 c-37 -37 -39 -38 -50 -18 -7 14 -9 15 -6 4 7 -22 3 -22
-39 -2 -74 35 -106 -4 -67 -81 12 -22 23 -47 26 -56 12 -42 89 -23 94 24 l3
28 20 -26 c40 -49 118 -19 106 42 -3 15 -1 37 4 50 12 33 -5 73 -32 73 -12 0
-39 -17 -59 -38z m60 -1 c0 -5 -9 -13 -20 -16 -25 -8 -45 -42 -42 -75 2 -25 2
-25 -8 -2 -12 28 1 65 32 86 25 18 38 20 38 7z m-145 -47 c29 -19 33 -49 9
-58 -23 -9 -28 -1 -14 23 9 18 8 22 -12 30 -13 4 -30 11 -38 14 -10 3 -7 6 8
6 12 1 34 -6 47 -15z m115 -24 c0 -5 -5 -10 -11 -10 -5 0 -7 5 -4 10 3 6 8 10
11 10 2 0 4 -4 4 -10z"/>
<path d="M1196 3124 c-16 -41 65 -74 94 -38 18 20 -3 40 -51 49 -29 5 -38 3
-43 -11z"/>
<path d="M2641 3101 c-12 -12 -21 -25 -21 -31 0 -6 -18 -7 -45 -3 -53 7 -58
-5 -22 -61 23 -36 53 -47 63 -22 3 8 13 12 25 9 32 -9 48 14 45 63 -3 58 -17
73 -45 45z m9 -37 c-12 -13 -11 -17 1 -25 11 -7 11 -9 -3 -9 -10 0 -18 5 -18
11 0 16 21 51 27 45 3 -3 0 -13 -7 -22z m-60 -24 c8 -5 12 -11 10 -14 -3 -2
-14 2 -24 10 -22 15 -10 19 14 4z"/>
<path d="M2396 3011 c-4 -7 -5 -15 -2 -18 9 -9 19 4 14 18 -4 11 -6 11 -12 0z"/>
<path d="M2885 2990 c-17 -19 -17 -22 -3 -36 14 -14 17 -14 32 1 20 20 20 29
3 44 -11 8 -18 6 -32 -9z"/>
<path d="M2264 2988 c-5 -7 -18 -30 -28 -51 l-20 -38 27 -25 c15 -14 27 -29
27 -34 0 -15 33 -12 74 5 44 19 46 39 6 57 -21 9 -33 24 -42 52 -14 42 -29 54
-44 34z m26 -58 c0 -16 -4 -30 -8 -30 -5 0 -7 14 -4 30 2 17 6 30 8 30 2 0 4
-13 4 -30z m60 -44 c0 -2 -11 -6 -25 -8 -14 -3 -25 -1 -25 3 0 5 11 9 25 9 14
0 25 -2 25 -4z"/>
<path d="M3304 2965 c-4 -8 -15 -15 -26 -15 -23 0 -21 -28 3 -43 24 -15 69 0
69 22 0 46 -33 71 -46 36z m26 -27 c0 -19 -2 -20 -10 -8 -13 19 -13 30 0 30 6
0 10 -10 10 -22z"/>
<path d="M3535 2950 c-3 -6 -11 -7 -17 -4 -7 5 -8 2 -3 -6 6 -10 4 -12 -8 -7
-10 4 -24 10 -32 13 -22 9 -30 -24 -11 -45 9 -10 16 -23 16 -30 0 -14 77 -8
92 7 16 16 5 76 -14 80 -9 2 -19 -2 -23 -8z m24 -17 c0 -5 -4 -17 -9 -28 -8
-18 -9 -17 -9 8 -1 15 4 27 9 27 6 0 10 -3 9 -7z m-50 -47 c-2 -2 -13 8 -23
22 l-19 27 24 -22 c12 -12 21 -24 18 -27z"/>
<path d="M956 2921 c-22 -25 -11 -54 18 -45 47 14 53 34 17 54 -14 7 -23 5
-35 -9z"/>
<path d="M2071 2916 c-9 -10 -8 -16 3 -25 10 -9 16 -8 25 3 9 10 8 16 -3 25
-10 9 -16 8 -25 -3z"/>
<path d="M4116 2904 c-10 -27 5 -37 25 -15 24 25 24 31 0 31 -10 0 -22 -7 -25
-16z"/>
<path d="M3756 2901 c-7 -11 3 -41 13 -41 14 0 29 23 24 36 -6 16 -29 19 -37
5z"/>
<path d="M1219 2854 c-21 -25 19 -45 51 -24 13 8 12 11 -5 24 -25 19 -30 19
-46 0z"/>
<path d="M1040 2835 c0 -8 4 -15 9 -15 5 0 13 -9 16 -20 8 -24 28 -26 45 -5
10 13 10 19 -5 35 -21 24 -65 27 -65 5z"/>
<path d="M2310 2739 c-15 -26 10 -56 45 -56 20 0 25 5 25 25 0 25 -24 51 -47
52 -7 0 -17 -9 -23 -21z"/>
<path d="M2223 2581 c-11 -11 -23 -24 -24 -30 -3 -6 -19 -6 -47 2 -36 10 -45
9 -52 -3 -14 -21 -12 -28 9 -49 11 -11 21 -27 23 -38 4 -24 56 -31 64 -9 3 9
10 13 16 10 5 -3 20 -3 34 0 24 6 25 10 22 68 -3 68 -13 78 -45 49z m7 -51
c-6 -12 -14 -19 -17 -17 -2 3 1 15 7 27 6 12 14 19 17 17 2 -3 -1 -15 -7 -27z
m-50 -20 c0 -5 -13 -4 -30 1 -16 6 -30 15 -30 19 0 5 14 4 30 -1 17 -6 30 -15
30 -19z"/>
<path d="M841 2526 c-9 -10 -9 -16 -1 -21 16 -10 31 7 21 23 -6 10 -10 10 -20
-2z"/>
<path d="M4275 2360 c-4 -6 -3 -16 3 -22 6 -6 12 -6 17 2 4 6 3 16 -3 22 -6 6
-12 6 -17 -2z"/>
<path d="M2445 2228 c-3 -7 1 -31 9 -53 14 -40 14 -40 66 -40 l53 0 12 40 c19
67 2 84 -43 43 -14 -13 -22 -17 -17 -9 6 10 4 13 -6 9 -8 -3 -23 0 -34 8 -23
17 -34 18 -40 2z m117 -31 c-7 -8 -9 -17 -5 -20 3 -4 -1 -7 -11 -7 -11 0 -15
5 -10 13 14 24 27 37 32 32 3 -2 0 -11 -6 -18z m-63 -26 c-1 -13 -2 -13 -6 2
-2 9 -9 17 -14 17 -5 0 -9 5 -9 11 0 8 5 8 15 -1 8 -7 14 -20 14 -29z"/>
<path d="M2276 2214 c-11 -29 6 -42 33 -25 12 8 12 12 2 25 -17 20 -27 20 -35
0z"/>
<path d="M732 2068 c2 -13 8 -23 13 -23 6 0 11 10 13 23 2 15 -2 22 -13 22
-11 0 -15 -7 -13 -22z"/>
<path d="M890 2064 c0 -8 5 -12 10 -9 6 3 10 10 10 16 0 5 -4 9 -10 9 -5 0
-10 -7 -10 -16z"/>
<path d="M872 2014 c-39 -27 -23 -84 23 -84 43 0 61 53 29 84 -19 20 -24 20
-52 0z m32 -34 c-22 -9 -29 -6 -20 9 4 6 14 7 23 4 15 -6 14 -7 -3 -13z"/>
<path d="M4168 1884 c-8 -7 2 -44 12 -44 13 0 32 29 25 40 -7 11 -28 14 -37 4z"/>
<path d="M4410 1819 c0 -5 5 -7 10 -4 6 3 10 8 10 11 0 2 -4 4 -10 4 -5 0 -10
-5 -10 -11z"/>
<path d="M3600 1480 c0 -5 5 -10 10 -10 6 0 10 5 10 10 0 6 -4 10 -10 10 -5 0
-10 -4 -10 -10z"/>
<path d="M3820 1449 c0 -11 5 -17 10 -14 6 3 10 13 10 21 0 8 -4 14 -10 14 -5
0 -10 -9 -10 -21z"/>
<path d="M3644 1397 c-3 -9 -3 -25 1 -34 6 -16 8 -16 18 5 7 16 7 26 -1 34 -8
8 -13 7 -18 -5z"/>
<path d="M3714 1395 c-9 -23 14 -45 26 -25 5 8 8 19 7 24 -6 17 -27 18 -33 1z"/>
<path d="M3820 1385 c0 -15 4 -24 10 -20 6 3 10 12 10 20 0 8 -4 17 -10 20 -6
4 -10 -5 -10 -20z"/>
<path d="M3552 1388 c6 -18 28 -21 28 -4 0 9 -7 16 -16 16 -9 0 -14 -5 -12
-12z"/>
<path d="M993 1340 c-72 -29 -47 -140 32 -140 38 0 75 37 75 74 0 22 -33 66
-50 66 -4 0 -14 2 -22 4 -7 3 -23 1 -35 -4z m31 -108 c-1 -2 -11 -1 -22 2 -25
8 -35 43 -20 70 10 18 12 16 28 -25 9 -24 15 -46 14 -47z m20 82 c36 -14 43
-74 9 -74 -11 0 -43 54 -43 75 0 7 15 6 34 -1z"/>
<path d="M3820 1320 c0 -11 5 -20 10 -20 6 0 10 9 10 20 0 11 -4 20 -10 20 -5
0 -10 -9 -10 -20z"/>
<path d="M3650 1314 c0 -8 5 -12 10 -9 6 4 8 11 5 16 -9 14 -15 11 -15 -7z"/>
<path d="M3496 1293 c-12 -12 -6 -43 9 -43 8 0 15 9 15 19 0 21 -13 34 -24 24z"/>
<path d="M1500 1278 c0 -28 18 -44 37 -32 27 17 22 39 -9 42 -18 2 -28 -1 -28
-10z"/>
<path d="M3620 1269 c-24 -44 22 -127 55 -99 21 18 21 106 -1 114 -28 11 -43
7 -54 -15z"/>
<path d="M1820 1260 c0 -11 5 -20 10 -20 6 0 10 9 10 20 0 11 -4 20 -10 20 -5
0 -10 -9 -10 -20z"/>
<path d="M1255 1228 c-4 -10 -4 -26 0 -35 6 -17 7 -17 16 0 7 11 7 23 0 35 -9
16 -10 16 -16 0z"/>
<path d="M1625 1231 c-3 -5 -1 -12 5 -16 5 -3 10 1 10 9 0 18 -6 21 -15 7z"/>
<path d="M3490 1194 c0 -31 23 -28 28 4 2 15 -2 22 -12 22 -11 0 -16 -9 -16
-26z"/>
<path d="M1820 1189 c0 -24 23 -21 28 4 2 10 -3 17 -12 17 -10 0 -16 -9 -16
-21z"/>
<path d="M1602 1178 c-16 -16 -15 -53 3 -68 19 -16 45 -10 61 15 26 39 -31 86
-64 53z m46 -30 c-3 -7 -11 -13 -18 -13 -7 0 -15 6 -17 13 -3 7 4 12 17 12 13
0 20 -5 18 -12z"/>
<path d="M1250 1110 c0 -29 4 -40 15 -40 11 0 15 11 15 40 0 29 -4 40 -15 40
-11 0 -15 -11 -15 -40z"/>
<path d="M3490 1134 c0 -9 5 -14 12 -12 18 6 21 28 4 28 -9 0 -16 -7 -16 -16z"/>
<path d="M3817 1144 c-4 -4 -7 -20 -7 -36 0 -23 4 -29 18 -26 11 2 17 13 17
32 0 29 -14 43 -28 30z"/>
<path d="M1450 1120 c0 -11 5 -20 10 -20 6 0 10 9 10 20 0 11 -4 20 -10 20 -5
0 -10 -9 -10 -20z"/>
<path d="M3650 1075 c0 -37 4 -65 10 -65 6 0 10 28 10 65 0 37 -4 65 -10 65
-6 0 -10 -28 -10 -65z"/>
<path d="M3496 1092 c-3 -6 -1 -14 5 -17 15 -10 25 3 12 16 -7 7 -13 7 -17 1z"/>
<path d="M1446 1073 c-11 -11 -6 -23 9 -23 26 0 16 -25 -15 -37 -37 -14 -40
-52 -10 -98 11 -16 20 -43 20 -60 0 -21 3 -26 9 -16 5 7 7 21 4 30 -2 9 7 33
21 54 30 43 33 69 11 87 -8 7 -15 23 -15 35 0 22 -22 40 -34 28z m44 -97 c0
-7 -9 -21 -21 -32 -20 -18 -21 -18 -35 1 -16 21 -14 37 4 43 7 2 12 -4 12 -14
0 -17 14 -11 16 7 3 19 4 20 14 14 6 -3 10 -12 10 -19z"/>
<path d="M2707 1038 c-5 -15 3 -211 9 -217 2 -2 4 48 4 112 0 111 -3 133 -13
105z"/>
<path d="M3477 1032 c-20 -22 -22 -63 -5 -80 28 -28 88 0 88 41 0 20 -35 57
-53 57 -8 0 -21 -8 -30 -18z m51 -35 c2 -12 -1 -15 -12 -11 -10 4 -16 1 -16
-7 0 -10 -3 -10 -11 -2 -16 16 -3 45 18 41 10 -2 19 -11 21 -21z"/>
<path d="M1250 1005 c0 -25 4 -35 13 -32 6 2 12 16 12 32 0 16 -6 30 -12 33
-9 2 -13 -8 -13 -33z"/>
<path d="M3112 1000 c0 -14 2 -19 5 -12 2 6 2 18 0 25 -3 6 -5 1 -5 -13z"/>
<path d="M1903 974 c-9 -23 13 -40 32 -24 12 10 13 16 4 26 -15 18 -28 18 -36
-2z"/>
<path d="M3650 960 c0 -5 5 -10 10 -10 6 0 10 5 10 10 0 6 -4 10 -10 10 -5 0
-10 -4 -10 -10z"/>
<path d="M1627 954 c-11 -11 3 -24 18 -18 8 4 12 10 9 15 -6 11 -18 12 -27 3z"/>
<path d="M3104 939 c-3 -6 -1 -16 5 -22 8 -8 11 -5 11 11 0 24 -5 28 -16 11z"/>
<path d="M3814 916 c-8 -21 -1 -49 13 -53 6 -2 14 5 17 15 12 36 -17 72 -30
38z"/>
<path d="M3250 865 c0 -25 4 -35 13 -32 6 2 12 16 12 32 0 16 -6 30 -12 33 -9
2 -13 -8 -13 -33z"/>
<path d="M1712 874 c-33 -23 -31 -86 4 -113 46 -36 118 -19 142 33 16 36 8 49
-44 74 -53 26 -72 27 -102 6z m87 -31 c17 -10 31 -23 31 -30 0 -23 -22 -25
-44 -4 l-23 21 5 -32 c5 -32 5 -32 -18 -17 -36 24 -46 45 -31 63 17 21 42 20
80 -1z"/>
<path d="M3107 874 c-4 -4 -7 -25 -7 -46 0 -49 23 -47 28 2 3 32 -8 56 -21 44z"/>
<path d="M3011 786 c-9 -10 -8 -16 3 -25 10 -9 16 -8 25 3 9 10 8 16 -3 25
-10 9 -16 8 -25 -3z"/>
<path d="M3357 763 c-24 -23 12 -55 38 -33 12 10 13 16 4 26 -12 15 -31 18
-42 7z"/>
<path d="M2296 745 c-4 -12 -1 -16 11 -13 18 3 21 20 5 26 -5 1 -12 -4 -16
-13z"/>
<path d="M3105 741 c-6 -11 9 -23 19 -14 9 9 7 23 -3 23 -6 0 -12 -4 -16 -9z"/>
<path d="M1444 716 c-9 -23 0 -51 16 -51 10 0 15 10 15 29 0 32 -21 47 -31 22z"/>
<path d="M3077 553 c-12 -12 -7 -22 18 -39 23 -15 27 -15 51 0 14 10 24 22 22
28 -4 12 -81 21 -91 11z"/>
</g>
</svg>
